<?xml version="1.0" standalone="no"?>
<!DOCTYPE svg PUBLIC "-//W3C//DTD SVG 20010904//EN"
 "http://www.w3.org/TR/2001/REC-SVG-20010904/DTD/svg10.dtd">
<svg version="1.0" xmlns="http://www.w3.org/2000/svg"
 width="600.000000pt" height="655.000000pt" viewBox="0 0 600.000000 655.000000"
 preserveAspectRatio="xMidYMid meet">
<g transform="translate(0.000000,655.000000) scale(0.100000,-0.100000)"
fill="#DDE3D5" stroke="none">
<path d="M5200 6260 c-171 -23 -264 -38 -315 -51 -22 -6 -56 -15 -75 -19 -82
-21 -157 -43 -187 -56 -17 -8 -38 -14 -47 -14 -9 0 -16 -4 -16 -10 0 -5 -10
-10 -22 -10 -52 0 -349 -163 -478 -263 -82 -63 -235 -216 -282 -281 l-36 -50
42 -41 c23 -22 63 -66 89 -98 l46 -57 39 58 c43 62 150 176 222 235 48 40 47
39 101 79 l37 27 16 -52 c9 -29 20 -59 23 -67 24 -56 56 -261 56 -360 0 -69
-14 -182 -33 -265 -12 -54 -78 -194 -111 -235 -17 -22 -62 -81 -132 -173 -12
-16 -27 -34 -32 -40 -6 -7 -20 -25 -33 -41 -12 -16 -22 -26 -22 -23 0 152 -22
322 -50 392 -4 11 -16 43 -26 70 -42 120 -150 293 -251 401 -83 89 -215 197
-351 287 -73 48 -137 87 -142 87 -6 0 -10 5 -10 10 0 6 -6 10 -13 10 -13 0
-77 -123 -77 -147 0 -7 -4 -13 -10 -13 -5 0 -10 -9 -10 -20 0 -11 -4 -20 -10
-20 -5 0 -10 -5 -10 -12 0 -10 -29 -89 -71 -193 -7 -18 -13 -43 -40 -165 -28
-126 -33 -470 -8 -486 5 -3 9 -19 9 -35 0 -57 80 -275 126 -343 13 -19 24 -39
24 -43 0 -5 7 -18 15 -28 90 -120 148 -191 203 -247 l66 -66 58 86 c32 48 58
93 58 100 0 6 5 12 10 12 24 0 6 36 -46 93 -93 103 -204 273 -204 313 0 8 -4
14 -8 14 -5 0 -13 19 -19 43 -6 23 -19 69 -28 102 -25 85 -26 344 -1 435 9 36
22 83 27 105 11 44 37 124 44 136 3 4 20 -5 38 -21 17 -15 64 -55 103 -88 76
-64 185 -194 219 -259 11 -21 22 -40 25 -43 14 -13 53 -119 75 -205 30 -113
28 -323 -4 -470 -11 -49 -60 -185 -71 -195 -3 -3 -13 -21 -24 -40 -20 -38
-146 -232 -156 -240 -3 -3 -35 -40 -70 -84 -182 -220 -337 -353 -515 -441 -22
-11 -42 -23 -45 -26 -3 -3 -20 -12 -39 -20 -19 -8 -55 -24 -80 -36 -24 -12
-48 -20 -52 -17 -4 2 3 23 17 47 13 23 24 50 24 60 0 9 4 17 9 17 5 0 12 16
16 36 3 20 10 44 15 53 4 9 16 48 25 86 9 39 21 90 28 115 14 57 14 346 0 397
-6 21 -19 67 -29 103 -16 59 -87 218 -103 230 -3 3 -13 18 -21 33 -36 71 -209
232 -325 304 -66 41 -153 83 -171 83 -8 0 -14 4 -14 9 0 5 -10 11 -22 14 -13
2 -50 12 -83 22 -120 34 -221 47 -360 48 -134 1 -300 -17 -320 -35 -5 -4 -17
-8 -26 -8 -63 0 -251 -81 -374 -160 -107 -69 -261 -227 -339 -347 -36 -56 -66
-105 -66 -108 0 -7 -37 -93 -50 -117 -6 -10 -10 -26 -10 -36 0 -10 -3 -22 -7
-26 -4 -4 -13 -28 -20 -54 -67 -242 -67 -558 0 -852 8 -36 24 -93 36 -127 12
-34 21 -69 21 -78 0 -8 4 -15 9 -15 5 0 12 -16 15 -35 4 -19 15 -52 26 -72 10
-21 33 -69 51 -108 18 -38 36 -71 41 -73 4 -2 8 -9 8 -15 0 -15 71 -123 154
-237 69 -93 265 -299 336 -352 l36 -27 92 88 c51 49 92 91 92 93 0 3 -21 22
-48 42 -74 58 -207 191 -259 259 -26 34 -50 64 -53 67 -30 24 -220 368 -220
398 0 4 -9 27 -20 49 -11 22 -24 58 -29 79 -6 22 -17 66 -26 99 -76 275 -67
627 20 840 72 176 158 295 295 408 64 53 182 117 260 142 30 10 64 21 75 26
38 15 213 39 287 39 184 0 383 -56 527 -148 74 -47 74 -48 146 -117 94 -91
145 -169 180 -275 10 -30 23 -66 29 -79 16 -34 14 -347 -2 -363 -7 -7 -12 -19
-12 -28 0 -32 -54 -179 -108 -295 -31 -66 -59 -122 -62 -125 -6 -6 -23 -34
-51 -85 -26 -48 -148 -235 -166 -253 -7 -8 -18 -23 -24 -34 -16 -30 -206 -276
-253 -328 -23 -25 -63 -72 -91 -105 -125 -148 -270 -301 -495 -520 -329 -320
-376 -369 -424 -444 -27 -41 -50 -82 -53 -90 -3 -9 -13 -35 -24 -57 -63 -142
-68 -351 -13 -524 38 -118 125 -257 230 -369 40 -42 81 -87 91 -99 l18 -23
375 371 c206 203 381 370 388 370 6 0 12 -4 12 -9 0 -5 8 -11 17 -15 18 -6 54
-27 63 -37 13 -14 183 -90 250 -112 133 -43 195 -54 395 -74 54 -5 156 4 325
28 110 17 130 21 136 30 3 5 14 9 25 9 24 0 200 59 213 71 6 5 16 9 23 9 17 0
179 79 268 130 39 23 78 44 88 47 9 3 17 9 17 13 0 5 10 12 23 17 33 13 116
67 117 77 0 4 -27 36 -60 70 -33 34 -72 76 -88 94 -29 32 -29 32 -47 12 -10
-11 -24 -20 -31 -20 -7 0 -14 -4 -16 -8 -3 -7 -234 -142 -243 -142 -2 0 -32
-13 -67 -28 -35 -16 -79 -35 -98 -41 -19 -7 -44 -17 -55 -22 -83 -35 -278 -74
-431 -86 -73 -5 -303 20 -335 38 -10 5 -29 9 -43 9 -14 0 -27 4 -30 9 -3 5
-17 12 -31 15 -82 21 -254 123 -367 219 -36 31 -68 52 -70 46 -8 -23 -713
-718 -717 -707 -2 7 -9 20 -16 28 -34 42 -80 149 -94 218 -24 117 -9 224 46
342 33 68 54 93 238 275 299 295 262 266 315 251 25 -7 52 -15 60 -18 33 -12
164 -28 228 -28 93 1 310 37 362 61 14 7 39 17 55 24 45 19 209 99 220 108 6
4 55 37 110 73 55 37 102 69 105 73 3 3 37 33 75 65 39 33 94 84 124 114 l54
54 50 -54 c55 -59 181 -191 357 -373 146 -151 481 -504 542 -570 74 -81 113
-123 247 -265 71 -74 140 -148 155 -165 27 -29 49 -53 226 -240 117 -124 196
-210 255 -278 46 -54 65 -68 65 -49 0 5 -8 17 -18 28 -10 10 -38 46 -62 79
-25 33 -48 62 -51 65 -3 3 -17 23 -31 45 -14 22 -57 85 -97 140 -39 55 -77
109 -85 120 -13 19 -34 49 -147 215 -24 36 -47 70 -52 75 -5 6 -39 55 -77 110
-38 55 -73 105 -78 111 -5 6 -21 29 -35 52 -25 38 -177 256 -195 277 -5 6 -17
24 -28 40 -10 17 -21 32 -24 35 -3 3 -14 18 -24 35 -11 16 -23 34 -28 40 -20
24 -118 166 -118 171 0 2 -5 10 -10 17 -6 7 -47 64 -90 127 -44 63 -83 120
-88 125 -4 6 -23 35 -42 65 -19 30 -37 57 -40 60 -4 3 -41 57 -83 121 -42 65
-83 124 -91 132 -13 13 0 29 112 139 219 215 301 260 470 259 107 0 153 -14
249 -74 122 -75 236 -232 263 -359 29 -133 24 -223 -18 -368 -32 -107 -135
-270 -249 -391 -35 -36 -63 -70 -63 -75 0 -5 14 -25 30 -44 17 -19 49 -63 73
-97 23 -35 45 -63 49 -63 17 0 204 217 267 310 49 74 95 162 121 235 12 33 26
69 31 80 12 28 31 145 36 232 5 76 -17 235 -43 313 -30 90 -91 197 -159 279
-53 63 -184 172 -235 195 -14 6 -27 13 -30 17 -3 3 -40 18 -83 33 -118 42
-291 52 -402 24 -22 -5 -52 -12 -67 -15 -16 -3 -28 -9 -28 -13 0 -4 -16 -11
-35 -14 -19 -4 -35 -11 -35 -16 0 -6 -5 -10 -11 -10 -25 0 -175 -124 -298
-247 -118 -118 -137 -133 -155 -125 -55 25 -80 32 -115 32 -38 0 -109 -29
-128 -52 -28 -34 -53 -92 -53 -121 0 -34 25 -114 41 -133 11 -13 -75 -100
-216 -220 -53 -45 -153 -117 -210 -151 -52 -31 -225 -112 -270 -126 -122 -38
-374 -49 -367 -16 2 8 9 17 16 21 7 4 57 58 112 119 54 62 111 126 126 142 15
16 42 47 60 70 18 22 56 68 84 101 49 59 207 277 289 401 39 58 42 60 100 71
33 5 67 13 75 16 8 3 42 13 75 24 33 10 67 21 75 25 60 27 93 39 105 39 8 0
15 5 15 10 0 6 6 10 13 10 19 0 218 111 272 152 214 164 285 234 481 479 59
74 65 77 109 59 54 -22 113 -40 131 -40 11 0 24 -4 29 -9 13 -12 111 -29 246
-42 111 -11 294 -2 394 20 98 22 325 115 345 142 3 3 23 16 45 27 22 11 52 31
67 44 15 13 36 30 46 38 241 189 460 537 557 885 9 33 21 76 26 95 13 47 27
128 39 225 5 44 12 98 15 120 3 22 8 117 11 210 7 223 -20 493 -77 790 -5 28
-12 65 -16 83 l-5 32 -167 -1 c-93 -1 -225 -10 -301 -19z m443 -9 c4 -1 6 -4
5 -8 -1 -5 3 -37 11 -73 30 -152 40 -208 45 -255 3 -27 8 -66 11 -85 22 -153
28 -530 11 -685 -4 -33 -8 -73 -10 -90 -2 -16 -6 -37 -9 -45 -3 -8 -8 -38 -11
-65 -8 -76 -62 -283 -91 -350 -7 -16 -19 -49 -26 -72 -7 -24 -16 -43 -21 -43
-4 0 -8 -6 -8 -12 0 -25 -98 -209 -132 -248 -10 -11 -18 -23 -18 -26 0 -10
-114 -157 -149 -192 -18 -18 -36 -30 -41 -27 -4 3 -7 -1 -6 -8 2 -26 -251
-227 -285 -227 -5 0 -9 -5 -9 -11 0 -5 -5 -7 -11 -3 -6 3 -14 3 -18 -2 -15
-22 -179 -89 -241 -100 -14 -2 -56 -11 -95 -19 -80 -16 -313 -20 -377 -5 -24
5 -81 17 -128 26 -87 17 -163 38 -190 53 -27 15 -79 23 -93 14 -12 -7 -51 -51
-170 -196 -75 -91 -182 -197 -193 -193 -8 3 -11 0 -8 -8 7 -18 -164 -152 -180
-140 -3 2 -4 1 -1 -3 6 -8 -154 -112 -172 -113 -7 0 -13 -4 -13 -10 0 -5 -9
-10 -20 -10 -11 0 -20 -4 -20 -10 0 -5 -7 -6 -17 -3 -9 4 -14 2 -10 -3 3 -5
-27 -22 -66 -38 -40 -15 -81 -32 -92 -36 -33 -14 -166 -51 -222 -62 -29 -5
-53 -15 -53 -20 0 -6 -7 -8 -14 -5 -11 4 -13 1 -9 -10 4 -11 2 -14 -5 -9 -8 4
-12 0 -12 -11 -1 -23 -25 -55 -34 -46 -4 4 -4 0 0 -10 3 -10 1 -17 -5 -17 -6
0 -11 -6 -11 -14 0 -8 -3 -16 -7 -18 -9 -3 -21 -20 -89 -121 -25 -37 -49 -65
-54 -62 -6 3 -8 0 -5 -7 3 -7 -7 -27 -22 -44 -16 -16 -41 -48 -58 -70 -39 -53
-199 -237 -303 -352 -63 -69 -88 -89 -95 -80 -6 9 -7 7 -3 -6 4 -10 2 -24 -4
-31 -15 -19 -1 -44 29 -52 67 -18 251 -6 332 21 25 9 54 17 65 19 38 6 289
137 334 174 8 7 33 26 55 42 22 17 47 37 55 44 79 73 123 106 132 101 6 -4 8
-3 5 3 -4 6 8 24 26 40 41 38 77 84 77 98 -1 5 -7 21 -15 35 -9 15 -14 54 -15
98 0 70 1 74 34 107 51 50 129 58 203 20 15 -8 33 -15 39 -15 6 0 46 36 89 80
57 57 82 76 88 67 6 -8 7 -7 4 4 -10 32 186 201 296 254 70 33 208 64 294 65
80 0 221 -33 302 -71 150 -71 278 -197 371 -363 102 -185 115 -458 34 -705
-21 -63 -90 -192 -98 -184 -4 4 -4 0 0 -10 3 -9 2 -17 -4 -17 -6 0 -15 -14
-21 -31 -6 -17 -15 -28 -21 -24 -6 4 -9 2 -8 -3 5 -16 -106 -152 -120 -147 -7
3 -10 0 -7 -5 10 -16 -65 -89 -84 -83 -14 4 -14 3 -1 -6 8 -5 11 -13 7 -17 -8
-8 -37 14 -37 28 0 5 -11 20 -25 34 -14 14 -25 29 -25 35 0 5 -11 22 -25 37
l-24 26 21 23 c11 12 25 20 31 16 6 -3 7 -2 4 4 -4 6 22 43 56 84 67 79 86
106 129 184 49 87 78 157 78 186 0 16 4 29 8 29 5 0 9 6 9 13 1 6 4 48 7 92
12 175 -45 348 -148 456 -25 25 -41 50 -38 58 3 8 1 12 -4 8 -6 -3 -26 7 -45
24 -19 16 -62 44 -96 61 -34 18 -59 37 -56 42 4 5 1 6 -6 2 -7 -5 -43 0 -81 9
-70 17 -101 16 -194 -4 -69 -15 -125 -44 -214 -111 -84 -62 -292 -272 -292
-294 0 -7 15 -33 32 -57 18 -24 43 -57 55 -74 12 -16 34 -51 49 -77 15 -27 31
-48 36 -48 6 0 8 -5 6 -12 -3 -7 5 -22 16 -34 32 -33 56 -64 51 -64 -3 0 3
-10 15 -22 11 -12 20 -25 20 -29 0 -4 6 -14 13 -21 6 -8 17 -21 22 -30 30 -48
111 -166 126 -183 10 -11 19 -24 20 -30 3 -18 18 -50 18 -41 1 10 61 -70 61
-80 0 -5 31 -46 96 -129 19 -24 125 -179 139 -203 14 -24 58 -86 65 -92 14
-11 90 -129 90 -139 0 -6 3 -11 8 -11 4 0 23 -24 42 -53 19 -28 37 -54 40 -57
11 -11 110 -151 110 -156 0 -3 18 -29 40 -58 22 -29 40 -58 40 -64 0 -6 6 -15
13 -19 8 -4 38 -44 67 -88 30 -44 57 -82 60 -85 3 -3 14 -18 23 -35 15 -25 12
-23 -18 10 -20 22 -88 94 -150 160 -62 66 -127 136 -145 155 -17 19 -70 76
-116 125 -47 50 -117 124 -156 165 -38 41 -108 115 -154 163 -46 48 -84 92
-84 98 0 6 -4 7 -10 4 -5 -3 -10 -2 -10 2 0 5 -37 47 -83 94 -119 124 -152
163 -149 172 1 5 -1 6 -6 3 -14 -8 -55 41 -47 55 5 7 4 10 -3 5 -15 -9 -380
366 -375 386 2 4 -3 7 -10 5 -6 -1 -11 4 -9 11 1 8 -2 11 -7 8 -5 -3 -22 9
-39 28 -46 52 -68 61 -100 39 -15 -9 -31 -16 -35 -15 -5 1 -6 -1 -3 -6 3 -5
-12 -26 -34 -46 -22 -20 -40 -35 -40 -33 0 2 -22 -17 -48 -42 -27 -25 -58 -53
-68 -62 -48 -38 -134 -99 -139 -99 -4 0 -23 -12 -43 -28 -20 -15 -32 -20 -27
-12 4 8 -6 2 -23 -14 -17 -15 -35 -25 -41 -22 -6 4 -11 2 -11 -3 0 -21 -241
-120 -330 -136 -87 -17 -232 -26 -310 -20 -94 7 -172 23 -165 35 2 4 -6 5 -19
3 -13 -3 -33 0 -43 6 -22 11 -66 4 -57 -10 3 -5 1 -9 -5 -9 -5 0 -32 -22 -59
-50 -27 -27 -53 -46 -57 -42 -5 4 -5 2 -2 -4 5 -9 -109 -126 -231 -236 -29
-26 -52 -51 -52 -56 0 -5 -7 -16 -16 -23 -26 -21 -85 -119 -112 -184 -22 -52
-25 -74 -25 -175 1 -63 3 -122 5 -130 21 -67 83 -194 110 -225 12 -14 30 -25
41 -25 10 0 54 34 97 77 43 42 85 80 92 84 7 5 9 9 5 9 -5 0 6 12 25 27 18 15
37 33 41 40 4 7 16 13 25 14 9 0 12 3 5 5 -7 3 5 20 30 42 22 20 76 72 118
116 51 52 81 76 89 71 9 -5 11 -4 6 3 -7 11 171 202 187 202 4 0 15 -8 25 -18
35 -33 72 -62 80 -62 4 0 13 -9 20 -20 7 -12 17 -18 22 -15 6 3 10 2 10 -4 0
-6 11 -13 25 -17 14 -3 22 -10 19 -15 -3 -5 2 -9 11 -9 9 0 13 -5 10 -11 -4
-6 -1 -9 6 -7 8 1 52 -16 99 -39 47 -23 99 -44 115 -48 17 -4 37 -9 45 -12 97
-37 381 -55 515 -34 123 20 324 78 409 118 27 12 53 20 59 16 6 -3 7 -2 4 4
-4 5 12 16 33 23 22 7 40 17 40 21 0 5 16 11 35 15 21 4 32 10 28 17 -4 6 0 8
10 4 9 -3 17 -2 19 2 6 16 118 82 128 76 6 -4 9 -3 8 2 -2 4 2 10 7 12 6 2 15
10 20 17 11 14 32 -3 120 -95 l39 -41 -24 -18 c-27 -18 -25 -18 -126 -78 -63
-38 -229 -128 -229 -124 0 1 -27 -10 -60 -25 -77 -35 -235 -95 -255 -97 -3 0
-9 -2 -15 -3 -147 -42 -219 -50 -440 -50 -192 0 -300 9 -291 23 2 4 -10 7 -27
8 -57 2 -160 33 -202 61 -11 7 -27 13 -35 13 -9 0 -43 16 -76 36 -32 20 -72
44 -89 52 -16 9 -36 22 -44 29 -13 14 -53 8 -59 -8 -2 -5 -8 -7 -13 -3 -5 3
-9 0 -9 -6 0 -6 -5 -8 -10 -5 -6 3 -10 0 -10 -7 0 -16 -522 -538 -538 -538 -7
0 -11 -3 -10 -8 2 -4 -27 -38 -64 -77 l-66 -70 -34 36 c-101 109 -125 137
-146 167 -13 18 -20 37 -16 44 4 7 4 10 -1 6 -31 -28 -129 190 -151 337 -17
105 5 303 41 375 7 14 19 41 28 60 28 66 108 180 164 233 30 28 106 103 169
165 63 62 119 110 124 107 6 -4 9 -2 8 3 -2 5 47 59 107 120 122 122 248 258
253 273 2 5 8 6 14 3 5 -3 12 3 15 15 3 11 9 18 14 15 5 -3 9 0 9 5 0 6 21 35
48 64 26 29 61 69 77 89 87 105 112 133 128 150 9 10 17 22 17 26 0 14 36 43
44 35 4 -4 5 -1 2 7 -4 9 7 29 24 47 16 18 30 36 30 41 0 5 11 22 25 38 14 16
25 34 25 39 0 6 5 3 10 -5 8 -13 10 -12 10 3 0 22 95 169 104 160 3 -4 6 -1 6
6 0 7 31 66 70 132 38 66 70 124 70 130 0 5 4 9 8 9 5 0 21 31 37 69 16 38 33
67 37 65 5 -3 8 5 8 18 0 13 6 35 14 49 11 22 23 60 26 81 0 4 7 23 15 41 40
97 52 303 25 430 -25 119 -70 220 -122 280 -10 11 -15 23 -13 27 3 5 -2 10
-10 14 -8 3 -15 13 -15 22 0 10 -3 15 -6 12 -3 -4 -22 10 -43 30 -56 56 -133
117 -169 136 -18 9 -30 21 -27 25 3 5 -3 7 -13 4 -11 -2 -26 3 -35 11 -8 9
-22 16 -31 16 -8 0 -18 5 -21 11 -4 6 -13 8 -21 5 -8 -3 -14 -2 -14 2 0 9 -51
24 -154 47 -95 22 -338 22 -430 0 -38 -9 -75 -14 -83 -11 -8 3 -12 2 -9 -3 3
-5 -16 -14 -42 -21 -75 -21 -179 -74 -279 -145 -27 -19 -133 -125 -149 -150
-9 -14 -20 -22 -25 -19 -5 3 -8 2 -7 -3 1 -4 -9 -26 -23 -48 -57 -89 -117
-219 -137 -296 -40 -162 -44 -191 -43 -363 0 -134 19 -317 39 -366 3 -8 6 -19
7 -25 3 -27 17 -82 25 -100 5 -11 16 -42 25 -70 10 -27 26 -69 37 -93 10 -24
15 -48 12 -55 -4 -7 -4 -9 1 -5 4 4 27 -30 50 -77 23 -46 52 -97 64 -114 12
-17 20 -31 16 -31 -3 0 4 -10 15 -22 11 -12 18 -28 16 -35 -3 -6 0 -10 7 -7
16 6 48 -52 41 -74 -4 -11 -3 -13 3 -5 7 9 13 7 23 -8 8 -12 26 -34 40 -49 14
-15 37 -40 51 -56 14 -16 53 -54 87 -86 33 -31 58 -59 54 -64 -4 -4 -2 -5 3
-2 6 3 25 -7 44 -23 34 -28 34 -29 16 -48 -10 -12 -22 -18 -28 -14 -5 3 -7 2
-4 -4 7 -11 -84 -103 -101 -103 -15 0 -193 171 -187 180 3 4 -1 7 -9 6 -7 0
-39 31 -70 69 -32 39 -63 78 -71 87 -8 9 -22 29 -32 45 -10 15 -22 33 -28 40
-39 45 -125 190 -125 209 0 7 -5 16 -10 19 -6 3 -19 27 -30 53 -12 26 -25 55
-30 64 -6 10 -10 25 -10 33 0 8 -4 15 -10 15 -5 0 -9 3 -8 8 2 4 -5 27 -14 52
-24 65 -66 209 -73 250 -10 56 -12 64 -18 80 -23 62 -30 479 -10 585 18 91 24
119 30 135 4 8 5 19 4 24 -1 4 3 13 8 20 5 6 12 24 15 40 3 15 14 46 24 69 11
23 25 57 32 74 7 18 17 30 23 26 6 -3 7 -1 3 5 -7 11 35 93 61 120 8 8 20 27
29 44 9 18 21 28 29 24 9 -3 12 0 9 8 -3 8 5 21 18 30 12 9 19 16 15 16 -4 0
23 29 60 65 37 36 70 65 73 65 4 0 20 12 36 26 16 14 47 35 69 46 22 11 42 23
45 27 7 8 95 51 106 51 5 0 20 6 34 13 41 21 141 54 200 66 268 53 564 28 768
-66 31 -14 63 -25 71 -24 7 1 10 -2 6 -8 -3 -6 2 -11 13 -11 11 0 30 -8 43
-19 13 -10 38 -25 54 -34 28 -14 151 -111 178 -139 66 -71 124 -149 156 -210
53 -98 93 -207 85 -231 -4 -12 -2 -17 4 -13 21 13 38 -296 21 -393 -28 -161
-52 -244 -100 -356 -12 -26 -39 -106 -39 -113 0 -3 3 -3 6 1 4 3 21 -1 38 -10
17 -8 28 -12 24 -8 -6 6 119 75 136 75 13 0 243 144 256 160 3 4 31 25 63 49
31 23 57 47 57 53 0 6 3 9 6 6 3 -4 22 12 42 35 20 23 47 50 60 60 12 10 22
25 22 33 0 8 5 12 10 9 6 -3 10 0 10 7 1 7 21 36 46 63 25 28 69 83 97 122 28
40 54 73 58 73 4 0 11 10 15 22 3 12 26 52 50 90 24 38 44 74 44 81 0 7 4 17
8 23 16 18 70 184 80 244 2 14 5 83 6 154 4 128 -14 252 -46 331 -7 17 -13 35
-13 40 -1 11 -37 87 -45 95 -3 3 -14 23 -25 45 -11 21 -33 55 -50 74 -71 83
-141 157 -174 185 -20 17 -47 41 -60 53 -61 54 -115 65 -127 26 -3 -10 -10
-26 -15 -35 -5 -10 -9 -26 -9 -35 0 -10 -7 -31 -15 -47 -8 -15 -15 -38 -15
-50 0 -13 -3 -26 -7 -29 -12 -13 -18 -91 -18 -252 0 -175 6 -255 18 -248 4 2
7 -5 7 -15 0 -24 33 -110 67 -175 8 -15 12 -36 8 -45 -3 -9 -3 -13 1 -10 10
11 37 -21 30 -37 -3 -8 0 -14 7 -12 7 1 11 -4 9 -11 -1 -8 2 -11 6 -8 10 6 99
-114 94 -126 -1 -5 4 -8 10 -9 21 -1 69 -65 62 -83 -3 -9 -10 -16 -16 -16 -5
0 -6 -5 -2 -12 5 -7 2 -9 -8 -5 -11 4 -14 1 -11 -12 2 -10 -3 -23 -11 -30 -9
-8 -16 -20 -16 -28 0 -9 -6 -13 -14 -10 -11 4 -13 1 -9 -10 5 -12 3 -14 -7 -8
-10 6 -12 4 -7 -8 3 -10 3 -17 -2 -17 -14 0 -31 26 -23 35 4 5 2 6 -3 2 -15
-8 -22 -2 -85 73 -62 73 -100 125 -100 137 0 5 -9 14 -20 21 -11 7 -20 17 -20
22 0 5 -18 39 -40 75 -22 37 -38 70 -35 76 4 5 2 9 -3 9 -5 0 -19 33 -32 73
-12 39 -26 81 -31 92 -43 97 -43 564 0 644 6 11 11 31 11 45 0 14 5 26 10 26
6 0 10 11 10 24 0 14 5 28 10 31 6 4 10 12 8 18 -1 7 6 29 15 51 9 21 17 43
17 48 0 6 6 22 13 36 8 15 31 63 52 107 21 44 40 82 41 84 5 6 154 -82 154
-91 0 -4 5 -8 11 -8 38 0 359 -274 359 -307 0 -7 4 -13 10 -13 5 0 30 -28 55
-62 24 -35 50 -69 57 -77 6 -8 12 -29 12 -48 0 -18 3 -27 7 -21 10 16 11 15
46 -62 29 -64 39 -89 61 -160 19 -62 42 -213 42 -281 0 -51 4 -71 19 -88 19
-22 20 -22 38 -3 43 45 83 95 83 104 0 5 5 6 10 3 6 -3 10 0 10 7 0 7 13 27
28 45 33 39 124 169 141 202 27 50 71 186 71 218 0 18 5 33 11 33 8 0 10 51 6
178 -4 150 -9 192 -31 277 -15 55 -31 114 -35 131 -10 36 -41 83 -56 84 -10 0
-53 -26 -65 -39 -3 -4 -30 -25 -60 -48 -88 -66 -229 -209 -243 -247 -4 -10
-13 -16 -21 -13 -10 4 -12 -1 -9 -16 5 -20 4 -20 -12 3 -10 14 -43 51 -73 82
l-55 57 40 53 c77 101 280 288 313 288 6 0 10 5 10 12 0 6 3 8 6 5 4 -4 14 1
23 11 9 10 32 27 51 38 19 10 37 22 40 25 16 17 202 99 211 93 7 -4 9 -3 5 4
-3 6 13 17 41 27 27 9 56 21 66 26 10 5 22 7 27 4 4 -3 10 -2 12 3 3 7 134 51
218 72 113 29 279 56 390 65 103 7 204 16 207 19 2 1 191 -1 206 -3z"/>
<path d="M5145 6019 c-60 -10 -145 -23 -187 -30 -43 -7 -78 -17 -78 -21 0 -4
-9 -8 -20 -8 -24 0 -168 -44 -218 -66 -18 -7 -40 -14 -50 -14 -9 0 -30 -11
-47 -24 -29 -23 -29 -24 -15 -67 8 -24 20 -55 27 -69 7 -14 13 -32 13 -40 0
-8 8 -35 16 -60 22 -61 53 -241 54 -315 0 -33 4 -65 8 -71 13 -20 43 -11 63
18 11 15 25 25 31 22 6 -4 8 -2 5 3 -4 6 10 32 29 58 28 36 39 44 46 34 7 -11
8 -9 4 4 -4 13 18 48 79 122 47 57 85 106 85 109 0 4 10 18 23 31 12 13 36 43
52 65 17 23 39 51 50 63 36 39 154 191 167 215 10 19 9 25 -8 41 -18 18 -23
18 -129 0z m125 -15 c0 -4 -12 -21 -27 -39 -31 -36 -43 -51 -93 -115 -19 -25
-37 -47 -40 -50 -3 -3 -24 -30 -47 -61 -22 -31 -115 -148 -205 -262 -89 -113
-170 -216 -179 -228 -14 -21 -15 -15 -17 84 -2 59 -6 117 -11 129 -4 13 -11
46 -15 73 -4 28 -12 66 -18 85 -24 78 -41 126 -49 145 -28 63 -29 75 -10 75
10 0 32 7 47 15 16 8 36 15 45 15 8 0 19 4 25 8 5 5 38 17 74 26 36 10 74 22
85 26 11 5 34 11 50 14 17 3 64 13 105 22 41 9 116 22 165 29 118 16 115 16
115 9z"/>
<path d="M5444 5850 c-15 -16 -31 -27 -35 -24 -5 3 -6 -2 -3 -10 4 -10 -6 -27
-24 -46 -17 -16 -29 -30 -26 -30 3 0 -19 -28 -51 -64 -6 -6 -21 -28 -35 -48
-14 -21 -28 -38 -32 -38 -5 0 -8 -6 -8 -14 0 -8 -3 -16 -7 -18 -8 -3 -31 -30
-88 -103 -16 -21 -45 -56 -63 -78 -18 -22 -37 -47 -42 -56 -8 -14 -11 -14 -20
-1 -9 12 -10 11 -6 -5 4 -14 -6 -35 -32 -66 -20 -26 -50 -63 -67 -84 -16 -21
-34 -43 -40 -49 -5 -6 -30 -38 -55 -71 -24 -33 -49 -65 -55 -71 -5 -6 -17 -22
-25 -34 -8 -12 -21 -28 -27 -36 -7 -7 -13 -18 -13 -24 0 -7 -7 -10 -14 -7 -11
4 -13 1 -9 -11 6 -14 4 -15 -8 -5 -11 9 -14 7 -15 -13 -1 -14 -9 -33 -18 -43
-36 -40 -1 -72 62 -56 57 14 250 34 332 34 47 0 137 -7 200 -15 193 -26 205
-27 218 -11 7 8 19 45 28 83 9 38 20 78 24 89 5 11 12 47 16 80 4 33 9 67 11
75 1 8 8 98 14 200 10 146 9 219 -1 345 -7 88 -13 175 -14 193 -1 20 -6 32
-15 32 -12 0 -12 -17 -6 -102 21 -250 8 -638 -26 -788 -40 -179 -46 -195 -70
-193 -13 1 -87 12 -164 23 -112 17 -166 19 -271 15 -72 -4 -137 -8 -145 -9 -8
-2 -36 -6 -64 -10 -27 -4 -67 -14 -87 -22 -40 -14 -58 -5 -32 17 9 7 37 40 62
74 25 33 49 62 52 65 3 3 25 32 50 65 25 33 47 62 50 65 3 3 28 34 55 70 41
55 125 161 194 245 9 11 36 47 61 80 25 33 52 69 61 80 122 149 239 304 239
316 0 5 7 9 15 9 8 0 15 7 15 15 0 23 -17 18 -46 -15z"/>
<path d="M3811 5504 c0 -11 3 -14 6 -6 3 7 2 16 -1 19 -3 4 -6 -2 -5 -13z"/>
<path d="M4765 5299 c-4 -6 -5 -12 -2 -15 2 -3 7 2 10 11 7 17 1 20 -8 4z"/>
<path d="M4441 5014 c0 -11 3 -14 6 -6 3 7 2 16 -1 19 -3 4 -6 -2 -5 -13z"/>
<path d="M4780 4891 c0 -6 4 -13 10 -16 6 -3 7 1 4 9 -7 18 -14 21 -14 7z"/>
<path d="M4895 4574 c-73 -5 -238 -35 -249 -45 -6 -5 -18 -9 -27 -9 -19 0
-122 -31 -129 -40 -3 -3 -27 -16 -55 -30 -101 -49 -210 -141 -265 -223 -14
-20 -30 -35 -37 -33 -7 3 -10 -1 -7 -8 3 -7 -15 -35 -39 -62 -24 -27 -46 -57
-50 -67 -4 -10 -12 -15 -17 -12 -6 4 -9 3 -8 -2 3 -8 -29 -55 -58 -87 -27 -29
-36 -57 -23 -73 24 -28 120 -57 259 -77 206 -31 436 4 587 89 25 14 50 22 56
18 6 -3 7 -1 3 5 -7 12 10 17 49 14 17 -2 17 0 5 8 -10 7 -12 12 -4 18 33 22
82 61 111 89 18 17 33 29 33 27 0 -3 24 21 53 52 28 32 64 70 80 86 15 16 27
33 27 37 0 4 9 16 20 26 11 10 20 22 20 26 0 5 20 40 45 78 25 38 45 74 45 80
0 6 5 11 12 11 6 0 8 3 5 6 -3 4 -2 15 3 25 8 14 6 21 -12 31 -13 7 -26 13
-30 14 -5 1 -11 3 -15 4 -5 1 -12 2 -16 1 -5 -1 -25 3 -45 9 -39 11 -244 20
-327 14z m360 -45 c33 -7 61 -14 63 -15 1 0 -13 -29 -33 -64 -19 -34 -35 -66
-35 -70 0 -5 -3 -10 -7 -12 -5 -1 -29 -34 -56 -73 -54 -81 -146 -179 -232
-252 -60 -50 -157 -113 -174 -113 -5 0 -11 -4 -13 -8 -3 -7 -131 -57 -208 -80
-54 -17 -235 -24 -330 -14 -84 10 -274 53 -288 66 -3 4 -2 10 3 14 6 4 35 39
66 77 30 39 91 115 135 170 92 116 159 183 229 230 114 75 279 133 435 151 30
4 57 9 60 11 10 10 326 -5 385 -18z"/>
<path d="M4270 4246 c0 -2 7 -7 16 -10 8 -3 12 -2 9 4 -6 10 -25 14 -25 6z"/>
<path d="M665 4179 c-4 -6 -5 -12 -2 -15 2 -3 7 2 10 11 7 17 1 20 -8 4z"/>
<path d="M3256 4137 c3 -10 9 -15 12 -12 3 3 0 11 -7 18 -10 9 -11 8 -5 -6z"/>
<path d="M3285 3260 c-3 -6 1 -7 9 -4 18 7 21 14 7 14 -6 0 -13 -4 -16 -10z"/>
<path d="M3178 2653 c7 -3 16 -2 19 1 4 3 -2 6 -13 5 -11 0 -14 -3 -6 -6z"/>
<path d="M2918 2643 c7 -3 16 -2 19 1 4 3 -2 6 -13 5 -11 0 -14 -3 -6 -6z"/>
<path d="M3006 2614 c-3 -8 -9 -13 -13 -11 -15 9 -29 -19 -30 -58 0 -36 2 -40
23 -40 37 2 89 85 53 85 -6 0 -9 -5 -7 -12 5 -13 -49 -64 -58 -55 -9 9 26 67
41 67 20 0 25 13 10 27 -10 10 -14 9 -19 -3z"/>
<path d="M3216 2435 c-8 -8 -18 -15 -23 -15 -5 0 -15 -9 -23 -19 -7 -11 -18
-17 -24 -14 -6 3 -8 3 -4 -2 4 -4 -4 -21 -17 -37 -14 -16 -25 -33 -25 -38 0
-26 149 -152 215 -181 l49 -22 17 22 c13 16 15 29 10 49 -9 29 -63 144 -72
152 -17 16 -46 77 -42 90 4 13 3 13 -6 0 -10 -13 -15 -8 -12 12 0 4 -7 4 -16
1 -11 -4 -14 -3 -9 5 10 17 0 15 -18 -3z m64 -90 c52 -83 103 -202 90 -210
-15 -10 -128 63 -204 132 l-42 38 50 57 c56 65 55 65 106 -17z"/>
<path d="M1967 2409 c7 -7 15 -10 18 -7 3 3 -2 9 -12 12 -14 6 -15 5 -6 -5z"/>
<path d="M3480 1809 c0 -5 5 -7 10 -4 6 3 10 8 10 11 0 2 -4 4 -10 4 -5 0 -10
-5 -10 -11z"/>
<path d="M3901 1374 c0 -11 3 -14 6 -6 3 7 2 16 -1 19 -3 4 -6 -2 -5 -13z"/>
<path d="M1045 569 c-4 -6 -5 -12 -2 -15 2 -3 7 2 10 11 7 17 1 20 -8 4z"/>
<path d="M4331 4984 c0 -11 3 -14 6 -6 3 7 2 16 -1 19 -3 4 -6 -2 -5 -13z"/>
<path d="M2914 1642 l-191 -187 -99 92 c-54 51 -104 93 -110 93 -6 0 -17 -7
-24 -15 -7 -8 -18 -15 -24 -15 -6 0 -32 -11 -58 -24 -27 -13 -66 -27 -88 -31
-22 -4 -43 -11 -46 -17 -6 -9 32 -48 141 -145 22 -20 100 -94 174 -166 l133
-130 167 166 c91 90 217 214 279 274 l114 108 -89 92 -88 92 -191 -187z m234
107 c12 -15 39 -44 58 -63 20 -20 33 -40 29 -46 -3 -6 -11 -7 -17 -4 -6 4 -8
3 -5 -3 7 -12 -10 -30 -279 -294 l-210 -206 -132 126 c-72 69 -164 157 -204
195 l-72 68 49 19 c28 10 72 30 99 44 40 21 51 23 65 13 22 -18 86 -75 140
-125 25 -24 48 -43 52 -43 7 0 135 118 246 228 35 34 63 60 63 57 0 -3 16 13
36 35 38 42 45 42 82 -1z"/>
</g>
</svg>
