<svg version="1.1" id="Layer_1" xmlns="http://www.w3.org/2000/svg" xmlns:xlink="http://www.w3.org/1999/xlink" x="0px" y="0px"
	 width="100%" viewBox="0 0 928 1024" enable-background="new 0 0 928 1024" xml:space="preserve">
<path fill="#DDE3D5" opacity="1.000000" stroke="none" 
	d="
M135.663025,976.332642 
	C121.837006,962.667725 111.820374,946.799500 104.574318,929.328308 
	C96.859924,910.727844 94.708076,891.106873 95.831772,871.025391 
	C96.850540,852.819153 102.969048,836.419495 111.549255,820.520630 
	C120.900757,803.192627 134.463974,789.677429 148.499985,776.368958 
	C157.913651,767.443298 166.585724,757.729858 176.083038,748.899719 
	C185.337753,740.295166 194.454208,731.548645 203.249756,722.503784 
	C222.714157,702.487427 242.466568,682.744324 260.091156,660.989380 
	C270.645508,647.961609 282.804199,636.197693 292.931671,622.870178 
	C302.468170,610.320435 312.665558,598.236206 321.269928,584.932007 
	C324.749634,579.551636 328.917328,574.504456 332.547546,569.148865 
	C340.753540,557.042603 348.404449,544.591003 355.813965,531.978088 
	C364.851379,516.593933 372.468597,500.492432 378.931702,483.944794 
	C388.912872,458.389862 394.154755,431.952576 389.234039,404.396179 
	C384.263245,376.559235 371.042267,353.348572 349.933472,334.443268 
	C332.145142,318.511810 311.403992,308.779510 288.501556,302.752930 
	C277.152618,299.766571 265.708649,297.576996 254.091019,297.317566 
	C216.027679,296.467560 181.354858,306.669312 149.759247,328.516296 
	C133.982697,339.425140 123.135139,353.915009 113.447006,369.651520 
	C103.707283,385.471771 96.702934,402.599182 93.264488,420.906586 
	C89.843773,439.119629 88.908028,457.583984 89.430305,476.119415 
	C90.158134,501.949951 95.363014,526.985718 103.211250,551.472778 
	C107.016350,563.344971 112.029953,574.845215 117.915390,585.841248 
	C125.211555,599.472961 131.880630,613.516357 141.012985,626.073975 
	C152.473373,641.832886 164.841568,656.812683 179.380783,669.933167 
	C186.423706,676.288818 193.183670,682.951904 200.707581,688.761414 
	C203.073227,690.588074 203.092636,692.553528 200.994278,694.644409 
	C192.380661,703.226929 183.752289,711.795166 175.195740,720.434387 
	C173.073090,722.577576 171.242569,721.387573 169.391663,720.257690 
	C162.789093,716.227417 157.329285,710.724976 152.045288,705.277344 
	C140.235016,693.101318 127.962471,681.319580 117.392235,667.985596 
	C102.786888,649.561584 89.482185,630.193726 78.995682,609.170898 
	C66.423599,583.966919 57.037235,557.509460 51.367039,529.819519 
	C45.111908,499.273132 42.913887,468.439270 45.961506,437.421539 
	C47.566216,421.089264 50.674732,404.975037 56.024555,389.254822 
	C58.764576,381.203461 62.059212,373.454620 65.254669,365.631866 
	C71.109619,351.298492 80.565857,339.227661 90.079445,327.276276 
	C96.899551,318.708527 104.771980,311.050751 112.654404,303.437500 
	C125.227135,291.294128 139.831390,282.334106 155.427567,274.543243 
	C173.804077,265.363495 193.154755,258.939789 213.253830,256.479767 
	C237.156998,253.554138 261.344360,252.806458 285.379303,257.358185 
	C294.221802,259.032776 303.026306,260.632690 311.702087,263.085999 
	C330.323730,268.351746 347.166016,277.246124 362.958099,288.148010 
	C376.960175,297.814178 389.723175,309.016815 400.687195,322.080719 
	C412.473328,336.124176 420.335968,352.302856 426.565948,369.499878 
	C436.063293,395.715973 435.904633,422.622589 433.605560,449.777039 
	C432.376312,464.295349 428.362640,478.101990 423.636108,491.872040 
	C421.044800,499.421417 417.896057,506.696686 415.121704,514.141113 
	C414.662537,515.373230 413.919678,516.679443 415.122437,517.855469 
	C416.453766,519.157166 417.941528,518.363831 419.344208,517.925110 
	C428.466644,515.072083 436.572693,510.088470 445.029144,505.805878 
	C471.763062,492.267090 493.293671,472.426514 513.334534,450.594391 
	C526.414001,436.345947 538.953979,421.676300 549.564514,405.519196 
	C559.954102,389.698639 570.392578,373.770660 576.227783,355.547089 
	C579.211548,346.228668 581.041321,336.570648 581.804504,326.736969 
	C583.030151,310.945099 583.342407,295.145508 581.295044,279.435760 
	C578.531555,258.230286 570.417114,239.014893 558.043213,221.647430 
	C546.880859,205.980423 534.240906,191.682510 518.476929,180.377502 
	C516.066101,178.648544 514.200623,176.177826 511.886475,174.291092 
	C508.168243,171.259583 506.799255,171.767365 505.203247,176.412537 
	C496.418091,201.981476 491.766479,228.085220 493.188629,255.305771 
	C493.981903,270.489838 497.380463,285.013763 502.366577,299.073120 
	C509.623444,319.535187 522.534607,336.715973 536.679932,352.966461 
	C538.751831,355.346680 540.624573,357.899414 542.617920,360.349121 
	C546.116333,364.648529 547.619507,368.404755 543.926636,374.118256 
	C538.435974,382.613281 533.474121,391.464050 527.588013,399.734375 
	C525.307312,402.938934 523.648621,403.660858 520.224365,400.518616 
	C509.119843,390.328522 500.079437,378.389069 490.457245,366.923889 
	C475.045197,348.559814 465.124847,327.328491 457.393280,304.878967 
	C448.212097,278.220459 447.086151,250.855499 449.759338,223.098175 
	C451.421448,205.839447 453.637024,188.694763 458.872620,172.079666 
	C462.988098,159.019211 469.120331,146.806870 474.806366,134.415878 
	C477.998016,127.460670 481.573151,120.675934 485.129456,113.895142 
	C488.405365,107.648987 489.908356,107.523544 495.867554,111.083160 
	C515.741821,122.954758 534.639465,136.259521 552.745544,150.615082 
	C570.192017,164.447647 584.782959,181.039307 596.718140,199.888229 
	C604.025085,211.427887 610.808044,223.185471 615.637146,236.092987 
	C619.969604,247.673172 623.428223,259.399353 625.424255,271.573517 
	C626.743286,279.618805 627.999146,287.674591 629.246948,295.731293 
	C629.519226,297.489380 630.071838,299.158722 631.949280,299.509491 
	C634.090942,299.909637 635.780396,298.750031 637.095093,297.087219 
	C642.551636,290.185852 647.847656,283.149902 653.497192,276.410400 
	C662.801575,265.310852 669.661743,252.783249 675.119507,239.504120 
	C679.441284,228.988968 681.185425,217.779175 682.630005,206.533310 
	C686.218140,178.601562 682.476440,151.504211 673.653564,124.950577 
	C672.867920,122.585968 672.292358,120.144333 671.394104,117.825722 
	C668.897339,111.381416 668.598022,111.283295 662.881897,115.584770 
	C651.831238,123.900635 641.169067,132.701935 631.824219,142.924301 
	C624.211487,151.251877 616.410034,159.442307 610.268250,169.024277 
	C606.984558,174.147308 605.155640,174.321182 601.206909,169.713516 
	C593.962280,161.259933 587.322571,152.280136 578.578369,145.200790 
	C575.608459,142.796326 577.080322,140.104782 578.663330,137.633560 
	C582.720398,131.300247 587.437195,125.499893 592.860352,120.276695 
	C602.555542,110.938942 611.234253,100.566315 621.722778,92.034134 
	C644.330322,73.643341 669.267029,58.917046 696.018982,47.732285 
	C715.556946,39.563644 735.708252,32.918839 756.596985,28.242868 
	C784.152222,22.074581 811.901672,18.623257 839.974670,16.490849 
	C854.451965,15.391158 868.947266,16.614813 883.379822,15.039680 
	C889.462769,14.375793 891.321716,19.186522 892.850220,23.568195 
	C895.326599,30.667374 895.779053,38.231003 897.046570,45.599678 
	C898.766479,55.597775 900.205872,65.646072 901.646057,75.689980 
	C906.603760,110.266098 907.768555,144.896454 904.596191,179.765320 
	C902.905762,198.345505 901.467712,216.940460 898.229065,235.303909 
	C894.468323,256.628021 888.164490,277.236786 880.245239,297.443542 
	C870.347168,322.699493 856.948669,346.008606 841.961365,368.404877 
	C834.001892,380.299103 823.315186,390.073029 813.192261,400.192566 
	C801.756775,411.624207 788.621460,420.683807 774.985962,429.371582 
	C762.577026,437.277893 749.120728,442.119598 735.649414,447.333038 
	C707.528320,458.215912 678.417664,457.723816 649.051697,455.594574 
	C639.555664,454.906067 630.182190,453.974640 620.873291,451.909973 
	C610.767639,449.668549 601.010620,446.480438 591.460022,442.559723 
	C582.705933,438.966003 580.424561,439.819519 574.575745,447.312958 
	C561.369812,464.232269 548.328247,481.462189 532.854004,496.272583 
	C511.173004,517.023438 487.153809,534.885010 460.091217,548.449951 
	C438.759583,559.142273 416.774750,568.018738 393.394379,572.610168 
	C385.000244,574.258606 380.340027,578.659546 375.960785,585.066711 
	C364.983490,601.127075 353.723999,616.995789 342.482239,632.873779 
	C332.393463,647.123413 320.482056,659.872375 309.262329,673.199707 
	C297.253174,687.464783 284.282654,700.838318 272.110138,714.934448 
	C270.697144,716.570740 268.013641,718.036499 269.225494,720.787292 
	C270.413605,723.484314 273.224609,722.766479 275.452881,722.728577 
	C291.926483,722.448303 308.444061,722.229492 324.288116,716.909790 
	C334.389130,713.518372 343.757172,708.387512 353.395111,703.901672 
	C370.439026,695.968994 385.113953,684.392761 399.766327,672.974426 
	C410.866455,664.324280 421.319855,654.747314 430.960236,644.391357 
	C433.288940,641.889832 434.276001,639.234131 433.067230,635.742859 
	C431.655060,631.664185 430.779633,627.403137 429.509094,623.271118 
	C426.327606,612.924622 433.694977,596.231995 443.494080,591.698669 
	C453.695251,586.979126 463.989471,585.945679 474.304749,591.181335 
	C477.563629,592.835388 480.116486,592.641724 482.830627,590.078308 
	C490.316376,583.008240 498.252502,576.436340 505.145691,568.716797 
	C514.039307,558.757019 525.196655,551.297668 535.036987,542.371338 
	C544.682739,533.621460 556.234314,527.649780 568.299500,523.835876 
	C580.903625,519.851624 594.305542,517.983704 607.766663,518.894043 
	C623.431396,519.953491 638.865051,522.315247 653.401184,528.598755 
	C669.554688,535.581421 682.493774,546.944092 695.003723,559.040161 
	C708.351807,571.946716 716.714294,587.936218 724.509949,604.329712 
	C730.318481,616.544495 731.059631,629.979187 733.140015,643.085449 
	C735.884888,660.377686 732.723267,677.360474 729.505493,694.085938 
	C727.101868,706.579407 721.172546,718.235352 715.636902,729.799927 
	C704.130859,753.837402 686.451355,773.415039 669.118774,793.112366 
	C660.925049,802.423950 660.406006,804.917358 651.892456,792.598633 
	C646.795288,785.223267 641.238098,778.153625 635.648071,771.137451 
	C633.536133,768.486755 634.029541,766.706970 635.772461,764.117798 
	C641.205750,756.046448 648.852966,749.965881 654.726440,742.269287 
	C665.969482,727.536438 676.830994,712.531860 682.959595,694.909546 
	C689.720764,675.468445 692.141907,655.581360 687.123413,635.080811 
	C680.640869,608.599609 664.552673,589.956055 642.731384,574.326965 
	C622.457825,559.806396 582.744873,562.051025 563.874878,576.095520 
	C550.454407,586.084167 538.648010,597.671753 526.771790,609.275879 
	C522.963989,612.996460 519.250488,616.813599 515.490845,620.583618 
	C512.866821,623.214722 512.607483,625.940979 514.784973,629.066284 
	C524.667603,643.250427 533.531372,658.104248 544.037720,671.901489 
	C552.181030,682.595581 559.407104,694.030701 566.465820,705.490662 
	C570.241089,711.619934 575.309692,716.678894 579.075928,722.772278 
	C592.731689,744.865479 608.555237,765.477234 623.209045,786.891174 
	C638.424622,809.125977 654.072632,831.064392 669.349792,853.257568 
	C683.588806,873.942444 697.438965,894.895813 711.753052,915.527832 
	C719.707458,926.993042 728.937683,937.616333 736.358276,949.396729 
	C744.188843,961.828064 753.510071,973.088745 761.921204,985.044678 
	C763.730591,987.616638 765.943787,989.912292 768.046326,992.267944 
	C769.884521,994.327454 770.983337,996.351013 768.395691,998.854614 
	C763.160034,997.046265 760.698730,992.259399 757.273865,988.548035 
	C743.054443,973.139465 728.959656,957.614014 714.610168,942.327698 
	C692.765503,919.057007 671.370422,895.369080 649.099670,872.491089 
	C634.827026,857.829102 621.423218,842.322083 607.174255,827.636047 
	C591.791443,811.781128 576.949341,795.420898 561.407837,779.708801 
	C543.403687,761.507019 526.162292,742.552795 508.482452,724.027588 
	C494.349304,709.218750 480.066162,694.552917 465.823822,679.848511 
	C463.038544,676.972900 460.691895,677.323853 457.889740,680.365051 
	C433.146759,707.218689 404.020966,728.332458 371.481659,744.625854 
	C357.265533,751.744263 343.141052,759.444702 327.154083,762.301453 
	C304.002167,766.438599 280.818298,769.970581 257.307037,765.299988 
	C251.450348,764.136597 245.430649,763.168213 239.934113,760.982788 
	C233.685318,758.498352 229.036774,759.942810 224.616714,764.305908 
	C215.728867,773.079407 206.903046,781.918518 197.882751,790.554260 
	C183.958588,803.884521 169.954910,817.171082 157.408585,831.799316 
	C149.273758,841.283997 145.201172,853.056824 142.205795,865.122253 
	C138.511108,880.004578 140.561432,894.492004 144.808167,908.928833 
	C151.666260,932.242981 169.402100,944.697632 189.414124,955.709778 
	C212.082596,968.183777 236.206436,963.996033 259.851898,963.134888 
	C284.814392,962.225891 308.857452,954.320312 333.456024,950.312378 
	C339.128662,949.388062 344.669800,947.086609 350.009125,944.804993 
	C361.193817,940.025391 372.912476,936.886169 384.392639,933.020569 
	C418.905365,921.399414 451.848846,906.279053 482.988678,887.477966 
	C509.930573,871.211365 535.600891,853.034302 559.513489,832.487610 
	C562.035828,830.320312 564.309448,827.866028 566.756531,825.607727 
	C568.924133,823.607239 570.896667,823.850586 572.614136,826.288879 
	C578.838867,835.126038 585.086792,843.946960 591.310486,852.784851 
	C592.792297,854.889038 591.837708,856.401672 590.186584,857.959229 
	C570.293945,876.725037 549.409912,894.298401 527.186829,910.247192 
	C501.459167,928.710999 474.653198,945.447571 446.132141,959.258057 
	C429.936920,967.100098 412.837280,972.720032 395.757568,978.350525 
	C370.749359,986.594788 345.328430,993.234741 319.602661,998.778687 
	C300.419250,1002.912720 281.148254,1006.690247 261.663116,1008.908447 
	C251.266266,1010.092041 240.757248,1008.603088 230.302185,1007.343384 
	C217.928268,1005.852600 205.433731,1005.380249 192.999146,1004.371765 
	C170.370209,1002.536560 151.800079,992.302307 135.663025,976.332642 
M624.072144,405.361542 
	C641.562561,409.522644 659.103943,412.946381 677.279785,411.819000 
	C689.651062,411.051727 702.145081,412.237946 714.147095,407.650543 
	C725.598206,403.273773 737.248596,399.506683 748.069763,393.535706 
	C762.367310,385.646606 774.395935,375.044769 785.913635,363.670258 
	C802.472290,347.317474 816.490417,329.134796 826.816467,308.213684 
	C829.389709,302.999969 829.034058,302.363586 823.598389,301.233307 
	C808.691040,298.133484 793.495300,298.200073 778.407410,297.432709 
	C756.376587,296.312286 735.216614,301.325867 714.294067,307.744415 
	C689.909973,315.224884 669.608826,328.832336 653.357300,348.276520 
	C641.438049,362.537262 630.411926,377.541290 618.630859,391.921692 
	C608.925598,403.768372 613.465088,402.505157 624.072144,405.361542 
M855.340881,93.001785 
	C838.058228,116.209404 820.784546,139.423645 803.490295,162.622604 
	C789.872803,180.889511 776.207520,199.120972 762.610474,217.403152 
	C757.959290,223.657059 753.588684,230.124603 748.799561,236.268219 
	C747.209656,238.307846 748.242126,241.719528 745.604675,242.713257 
	C741.378235,244.305679 740.462402,248.643585 737.657776,251.378677 
	C736.523987,252.484406 735.605896,254.271683 736.758606,255.922714 
	C737.764648,257.363739 739.631897,257.147003 740.919189,256.668121 
	C747.500305,254.219925 754.397339,254.865967 761.156982,254.462143 
	C783.271240,253.141006 805.385986,252.517471 827.164062,257.800812 
	C832.258850,259.036804 837.401428,258.812592 842.540161,259.045593 
	C846.686401,259.233612 848.742493,256.607147 849.438660,253.139557 
	C851.759460,241.579910 855.455627,230.282379 856.645630,218.521149 
	C858.218140,202.979462 859.420898,187.405182 860.290100,171.796539 
	C861.727966,145.974487 859.890808,120.251411 858.682983,94.502274 
	C858.601685,92.768845 858.432739,90.749634 855.340881,93.001785 
M726.241699,158.480026 
	C726.538818,162.287903 726.826233,166.096573 727.137207,169.903320 
	C727.295959,171.846924 726.896606,174.142334 729.359924,174.970337 
	C731.563660,175.711075 732.582153,173.709808 733.933228,172.588043 
	C734.699463,171.951828 735.453857,171.267136 736.071594,170.491226 
	C746.942627,156.837448 758.273560,143.515121 768.500427,129.393585 
	C777.454285,117.029968 786.283752,104.556793 796.072937,92.880150 
	C802.702026,84.972763 808.568054,76.462700 815.539062,68.843277 
	C816.603210,67.680130 818.073547,66.286407 817.062134,64.463150 
	C816.197937,62.905384 814.412170,63.420216 812.959595,63.300457 
	C804.010925,62.562672 795.536804,65.621094 786.889099,66.950089 
	C762.034180,70.769844 738.102539,78.321548 714.560242,87.079300 
	C708.645386,89.279610 708.141968,90.284653 710.682861,96.340805 
	C718.919739,115.973206 723.374634,136.553665 726.241699,158.480026 
M498.714905,675.833252 
	C504.016418,678.468079 508.352142,683.246216 515.530273,683.702332 
	C511.341705,669.295593 504.885834,656.926575 496.001129,645.805969 
	C494.030518,643.339478 491.794495,644.230347 489.973999,646.017090 
	C487.612732,648.334595 485.528625,650.931580 483.227234,653.313599 
	C479.310242,657.367737 479.347229,659.474792 483.676788,663.180542 
	C488.472412,667.285095 493.315979,671.333557 498.714905,675.833252 
z"/>
</svg>