<?xml version="1.0" encoding="UTF-8"?>
<svg id="_图层_1" data-name="图层 1" xmlns="http://www.w3.org/2000/svg" viewBox="0 0 494.56 890.81">
  <defs>
    <style>
      .cls-1 {
        fill: none;
        stroke: #231815;
        stroke-miterlimit: 10;
        stroke-width: .25px;
      }
    </style>
  </defs>
  <path class="cls-1" d="M.17,131.22L87.11,38.93,176.72.14s58.85,40.8,141.11,0l88.95,38.79,87.61,92.29-65.54,81.59-24.74-10.03-.67,199.3s-168.53,14.04-309.64,0l-3.34-197.85-24.08,9.25L.17,131.22Z"/>
  <path class="cls-1" d="M.17,613.59l86.94-92.29,89.62-38.79s58.85,40.8,141.11,0l88.95,38.79,87.61,92.29-65.54,81.59-24.74-10.03-.67,199.3s-168.53,14.04-309.64,0l-3.34-197.85-24.08,9.25L.17,613.59Z"/>
</svg>